<svg width="13.000000" height="13.000000" viewBox="0 0 13 13" fill="none" xmlns="http://www.w3.org/2000/svg" xmlns:xlink="http://www.w3.org/1999/xlink">
	<desc>
			Created with Pixso.
	</desc>
	<defs/>
	<path id="Форма 1" d="M12 1.08L12 11C12 11.56 11.56 12 11 12C10.43 12 10 11.56 10 11L10 3.41L1.7 11.7C1.31 12.1 0.68 12.1 0.29 11.7C-0.11 11.31 -0.11 10.68 0.29 10.29L8.58 2L1 2C0.43 2 0 1.56 0 1C0 0.44 0.43 0 1 0L10.91 0C11.04 -0.02 11.18 0 11.31 0.04C11.46 0.09 11.59 0.17 11.7 0.29C11.82 0.4 11.9 0.53 11.95 0.68C11.99 0.81 12.01 0.95 12 1.08Z" fill="#5B7DDE" fill-opacity="1.000000" fill-rule="evenodd"/>
</svg>
