<svg width="21.000000" height="21.000000" viewBox="0 0 21 21" fill="none" xmlns="http://www.w3.org/2000/svg" xmlns:xlink="http://www.w3.org/1999/xlink">
	<desc>
			Created with Pixso.
	</desc>
	<defs/>
	<path id="Vector" d="M20.05 1.09L15.46 -0.47C15.32 -0.52 15.17 -0.52 15.03 -0.47L10.44 1.09C10.31 1.14 10.2 1.22 10.12 1.33C10.04 1.44 9.99 1.58 10 1.71L10 5.23C10 9.52 14.78 11.61 14.99 11.69C15.07 11.73 15.16 11.75 15.25 11.75C15.33 11.75 15.42 11.73 15.5 11.69C15.71 11.61 20.5 9.52 20.5 5.23L20.5 1.71C20.5 1.58 20.45 1.44 20.37 1.33C20.29 1.22 20.18 1.14 20.05 1.09ZM18.12 4.41L15.71 7.47C15.64 7.57 15.55 7.64 15.45 7.7C15.34 7.76 15.23 7.79 15.11 7.8C15 7.81 14.88 7.8 14.76 7.77C14.65 7.73 14.55 7.67 14.46 7.6L12.93 6.28C12.76 6.13 12.66 5.92 12.64 5.69C12.63 5.47 12.71 5.24 12.85 5.07C13 4.9 13.21 4.79 13.44 4.77C13.66 4.75 13.89 4.81 14.07 4.96L14.9 5.67L16.75 3.33C16.82 3.24 16.9 3.16 17 3.1C17.11 3.04 17.22 3 17.33 2.99C17.45 2.97 17.56 2.98 17.68 3.01C17.79 3.04 17.89 3.1 17.98 3.17C18.08 3.24 18.15 3.33 18.21 3.43C18.26 3.53 18.3 3.65 18.31 3.76C18.33 3.88 18.32 3.99 18.28 4.11C18.25 4.22 18.19 4.32 18.12 4.41Z" fill="#95AAF1" fill-opacity="1.000000" fill-rule="nonzero"/>
	<path id="Vector" d="M-0.08 10C-0.19 10 -0.3 10.05 -0.38 10.13C-0.46 10.21 -0.51 10.32 -0.5 10.43L-0.5 18.53C-0.5 18.65 -0.41 18.75 -0.29 18.75L1.79 18.75C1.98 18.75 2.16 18.62 2.21 18.43L4.15 11.6C4.21 11.39 4.18 11.16 4.08 10.97C3.98 10.77 3.81 10.62 3.6 10.54C2.81 10.25 1.6 9.97 -0.08 10ZM18.75 14.81C17 14.81 13.5 17.02 11.74 17.02C10 17.02 8.03 15.68 8.03 15.68C8.03 15.68 10.38 16.12 11.74 16.12C13.11 16.12 13.49 15.66 13.49 15.03C13.49 13.5 10.89 13.26 9.58 13.06C8.29 12.34 7.62 11.77 5.48 11.59C5.46 11.71 5.44 11.84 5.41 11.96L3.65 18.16C5.64 19.06 9.07 20.5 10.87 20.5C13.5 20.5 20.5 17 20.5 16.12C20.5 15.25 19.62 14.81 18.75 14.81Z" fill="#5B7DDE" fill-opacity="1.000000" fill-rule="nonzero"/>
</svg>
