<svg width="11.000000" height="15.000000" viewBox="0 0 11 15" fill="none" xmlns="http://www.w3.org/2000/svg" xmlns:xlink="http://www.w3.org/1999/xlink">
	<desc>
			Created with Pixso.
	</desc>
	<defs/>
	<path id="Vector" d="M5 -0.16C3.5 -0.16 2.07 0.43 1.02 1.49C-0.04 2.54 -0.63 3.97 -0.63 5.46C-0.63 10.27 4.48 13.91 4.7 14.06C4.79 14.12 4.89 14.15 5 14.15C5.1 14.15 5.2 14.12 5.29 14.06C5.51 13.91 10.62 10.27 10.62 5.46C10.62 3.97 10.03 2.54 8.97 1.49C7.92 0.43 6.49 -0.16 5 -0.16ZM5 3.42C5.4 3.42 5.8 3.54 6.13 3.76C6.47 3.98 6.73 4.3 6.88 4.68C7.04 5.05 7.08 5.46 7 5.86C6.92 6.26 6.73 6.62 6.44 6.91C6.16 7.19 5.79 7.39 5.39 7.47C5 7.55 4.59 7.51 4.21 7.35C3.84 7.2 3.52 6.93 3.29 6.6C3.07 6.26 2.95 5.87 2.95 5.46C2.95 4.92 3.17 4.4 3.55 4.01C3.93 3.63 4.45 3.42 5 3.42Z" fill="#FFFFFF" fill-opacity="1.000000" fill-rule="nonzero"/>
</svg>
