<svg width="20.000000" height="21.000000" viewBox="0 0 20 21" fill="none" xmlns="http://www.w3.org/2000/svg" xmlns:xlink="http://www.w3.org/1999/xlink">
	<desc>
			Created with Pixso.
	</desc>
	<defs/>
	<path id="Vector" d="M6.36 10.65L-0.31 10.66L0.27 4.34C0.33 3.75 0.6 3.19 1.05 2.79C1.49 2.38 2.07 2.16 2.67 2.16L3.46 2.16C3.29 2.72 3.21 3.31 3.21 3.92C3.2 6.64 5.01 9.16 6.36 10.65ZM10.55 12.4L4.92 20.5L1.41 20.5C0.73 20.5 0.08 20.21 -0.37 19.71C-0.83 19.21 -1.05 18.54 -0.99 17.86L-0.48 12.41L8.34 12.4L10.55 12.4ZM12.3 10.65C13.65 9.16 15.45 6.64 15.45 3.92C15.45 3.31 15.37 2.71 15.2 2.16L15.99 2.16C17.24 2.16 18.26 3.1 18.39 4.34L18.97 10.64L12.3 10.65ZM19.14 12.39L12.67 12.4L7.05 20.5L17.25 20.5C17.59 20.5 17.92 20.43 18.22 20.29C18.53 20.15 18.81 19.96 19.03 19.71C19.26 19.46 19.43 19.17 19.53 18.85C19.64 18.53 19.68 18.2 19.65 17.86L19.14 12.39Z" fill="#5B7DDE" fill-opacity="1.000000" fill-rule="nonzero"/>
	<path id="Vector" d="M9.33 -0.5C6.92 -0.5 4.96 1.48 4.96 3.92C4.96 7.3 8.74 10.57 8.9 10.71C9.02 10.82 9.17 10.87 9.33 10.87C9.49 10.87 9.64 10.82 9.76 10.71C9.92 10.58 13.7 7.3 13.7 3.92C13.7 1.48 11.74 -0.5 9.33 -0.5ZM9.33 5.62C8.88 5.6 8.46 5.41 8.14 5.08C7.83 4.75 7.66 4.32 7.66 3.87C7.66 3.42 7.83 2.99 8.14 2.66C8.46 2.34 8.88 2.14 9.33 2.12C9.79 2.13 10.22 2.32 10.54 2.65C10.85 2.98 11.03 3.41 11.03 3.87C11.03 4.33 10.85 4.76 10.54 5.09C10.22 5.42 9.79 5.61 9.33 5.62Z" fill="#95AAF1" fill-opacity="1.000000" fill-rule="nonzero"/>
</svg>
