<svg width="15.000000" height="15.000000" viewBox="0 0 15 15" fill="none" xmlns="http://www.w3.org/2000/svg" xmlns:xlink="http://www.w3.org/1999/xlink">
	<desc>
			Created with Pixso.
	</desc>
	<defs/>
	<path id="Vector" d="M2 -0.5C1.33 -0.5 0.7 -0.24 0.23 0.23C-0.24 0.7 -0.5 1.33 -0.5 2L-0.5 4C-0.5 9.79 4.2 14.5 10 14.5L12 14.5C12.66 14.5 13.29 14.23 13.76 13.76C14.23 13.29 14.5 12.66 14.5 12L14.5 10.61C14.5 10.33 14.42 10.06 14.27 9.82C14.12 9.59 13.91 9.4 13.67 9.27L11.25 8.06C11.06 7.97 10.85 7.91 10.63 7.91C10.42 7.9 10.2 7.94 10 8.02C9.81 8.1 9.63 8.23 9.48 8.38C9.33 8.54 9.22 8.73 9.16 8.93L8.86 9.82C8.8 9.99 8.69 10.13 8.54 10.21C8.39 10.3 8.22 10.33 8.05 10.3C6.97 10.08 5.99 9.55 5.21 8.78C4.44 8 3.91 7.02 3.69 5.95C3.66 5.78 3.69 5.6 3.78 5.45C3.86 5.3 4 5.19 4.17 5.13L5.28 4.76C5.63 4.64 5.93 4.39 6.12 4.06C6.3 3.73 6.35 3.34 6.26 2.98L5.67 0.63C5.59 0.31 5.4 0.02 5.14 -0.19C4.87 -0.39 4.55 -0.5 4.21 -0.5L2 -0.5Z" fill="#5B7DDE" fill-opacity="1.000000" fill-rule="nonzero"/>
</svg>
