<svg width="21.000000" height="21.000000" viewBox="0 0 21 21" fill="none" xmlns="http://www.w3.org/2000/svg" xmlns:xlink="http://www.w3.org/1999/xlink">
	<desc>
			Created with Pixso.
	</desc>
	<defs/>
	<path id="Vector" d="M19.72 1.09L15.12 -0.47C14.99 -0.52 14.84 -0.52 14.7 -0.47L10.11 1.09C9.98 1.14 9.86 1.22 9.78 1.33C9.7 1.44 9.66 1.58 9.66 1.71L9.66 5.23C9.66 9.52 14.45 11.61 14.66 11.69C14.74 11.73 14.82 11.75 14.91 11.75C15 11.75 15.09 11.73 15.17 11.69C15.37 11.61 20.16 9.52 20.16 5.23L20.16 1.71C20.16 1.58 20.12 1.44 20.04 1.33C19.96 1.22 19.85 1.14 19.72 1.09ZM17.79 4.41L15.38 7.47C15.31 7.57 15.22 7.64 15.11 7.7C15.01 7.76 14.9 7.79 14.78 7.8C14.66 7.81 14.54 7.8 14.43 7.77C14.32 7.73 14.21 7.67 14.12 7.6L12.59 6.28C12.51 6.21 12.43 6.12 12.38 6.01C12.33 5.91 12.3 5.8 12.29 5.69C12.28 5.57 12.29 5.46 12.33 5.35C12.37 5.24 12.42 5.14 12.5 5.05C12.57 4.96 12.66 4.89 12.77 4.84C12.87 4.79 12.98 4.76 13.09 4.75C13.21 4.74 13.32 4.75 13.43 4.79C13.54 4.82 13.64 4.88 13.73 4.96L14.57 5.67L16.41 3.33C16.56 3.15 16.77 3.03 17 3C17.23 2.97 17.46 3.04 17.64 3.18C17.82 3.33 17.94 3.54 17.97 3.77C18 4 17.93 4.23 17.79 4.41Z" fill="#95AAF1" fill-opacity="1.000000" fill-rule="nonzero"/>
	<path id="Vector" d="M20.16 11.96C20.16 12.8 19.47 13.5 18.63 13.5L17.53 13.5C17.52 14.41 17.27 15.31 16.81 16.11C16.36 16.9 15.7 17.57 14.91 18.04L14.91 18.96C14.91 19.8 14.22 20.49 13.38 20.49L12.5 20.49C12.1 20.49 11.71 20.33 11.42 20.04C11.14 19.76 10.98 19.37 10.97 18.96L10.97 18.74L7.47 18.74L7.47 18.96C7.47 19.8 6.78 20.49 5.94 20.49L5.07 20.49C4.23 20.49 3.54 19.8 3.54 18.96L3.54 17.75C2.34 16.96 1.48 15.75 1.12 14.37L0.69 14.37C-0.15 14.37 -0.84 13.68 -0.84 12.84L-0.84 11.53C-0.84 10.69 -0.15 9.99 0.69 9.99L1.91 9.99C2.12 9.68 2.37 9.38 2.65 9.1C2.92 8.82 3.22 8.58 3.54 8.37L3.54 5.4C3.54 5.21 3.63 5.02 3.76 4.9C3.84 4.84 3.92 4.8 4.01 4.77C4.1 4.75 4.2 4.74 4.29 4.75C6.63 5.1 7.51 6.28 7.8 7.37L8.23 7.37C9.2 10.5 12.11 12.52 13.97 13.3C14.27 13.43 14.6 13.5 14.91 13.5C15.23 13.5 15.55 13.43 15.85 13.3C16.44 13.06 17.13 12.68 17.84 12.18L18.63 12.18C18.75 12.18 18.85 12.09 18.85 11.96C18.85 11.84 18.75 11.74 18.63 11.74C18.57 11.74 18.52 11.74 18.46 11.72C18.83 11.43 19.2 11.11 19.54 10.74C19.92 11.02 20.16 11.46 20.16 11.96Z" fill="#5B7DDE" fill-opacity="1.000000" fill-rule="nonzero"/>
</svg>
